<?xml version="1.0" encoding="UTF-8" standalone="no"?>
<svg width="40px" height="39px" viewBox="0 0 40 39" version="1.1" xmlns="http://www.w3.org/2000/svg" xmlns:xlink="http://www.w3.org/1999/xlink">
    <!-- Generator: Sketch 3.8.1 (29687) - http://www.bohemiancoding.com/sketch -->
    <title>beer-empty</title>
    <desc>Created with Sketch.</desc>
    <defs></defs>
    <g id="Page-1" stroke="none" stroke-width="1" fill="none" fill-rule="evenodd">
        <g id="beer-empty">
            <g id="Page-1">
                <g id="beer-empty">
                    <path d="M28.5341784,3.03717424 L28.5341784,0.821265152 C28.5341784,0.413340909 28.2189671,0.0826287879 27.8299531,0.0826287879 L0.704225352,0.0826287879 C0.315211268,0.0826287879 0,0.413340909 0,0.821265152 L0,35.9766522 C0,37.5920094 1.3190398,38.9015152 2.91957189,38.9015152 L25.6147018,38.9015152 C27.2271368,38.9015152 28.5342734,37.5983801 28.5342731,35.9832099 L28.5342723,32.4619848 L31.1493897,32.4619848 C35.9959624,32.4619848 39.9388732,28.3263106 39.9388732,23.2430152 L39.9388732,12.2561439 C39.9387793,7.17284848 35.9958685,3.03717424 31.1492958,3.03717424 L28.5341784,3.03717424 L28.5341784,3.03717424 Z M31.1492958,7.97599242 C33.3994366,7.97599242 35.2300469,9.89605303 35.2300469,12.2561439 L35.2300469,23.2429167 C35.2300469,25.6030076 33.3994366,27.5230682 31.1492958,27.5230682 L28.5341784,27.5230682 L28.5341784,7.97599242 L31.1492958,7.97599242 L31.1492958,7.97599242 Z" id="Combined-Shape" fill="#FFFFFF"></path>
                    <path d="M27.156338,4.76056061 L27.156338,1.55980303 L1.83737089,1.55980303 L1.43906103,1.55980303 L1.43906103,9.45316667 L27.1564319,9.45316667 L27.1564319,7.23725758 C27.1564319,6.82933333 27.4716432,6.49862121 27.8605634,6.49862121 L27.8605634,5.49909848 C27.4715493,5.49919697 27.156338,5.16848485 27.156338,4.76056061 L27.156338,4.76056061 L27.156338,4.76056061 Z" id="Shape" fill="#FFFFFF"></path>
                    <path d="M28.5341784,3.0530303 L28.5341784,0.837121212 C28.5341784,0.42919697 28.2189671,0.0984848485 27.8299531,0.0984848485 L0.704225352,0.0984848485 C0.315211268,0.0984848485 0,0.42919697 0,0.837121212 L0,35.9925083 C0,37.6078655 1.3190398,38.9173712 2.91957189,38.9173712 L25.6147018,38.9173712 C27.2271368,38.9173712 28.5342734,37.6142362 28.5342731,35.999066 L28.5342723,32.4778409 L31.1493897,32.4778409 C35.9959624,32.4778409 39.9388732,28.3421667 39.9388732,23.2588712 L39.9388732,12.272 C39.9387793,7.18870455 35.9958685,3.0530303 31.1492958,3.0530303 L28.5341784,3.0530303 L28.5341784,3.0530303 Z M31.1492958,31.0163258 C35.2191549,31.0163258 38.5303286,27.5434545 38.5304225,23.2746288 L38.5304225,12.2878561 C38.5304225,8.01912879 35.2193427,4.54615909 31.1493897,4.54615909 L28.5342723,4.54615909 L27.125823,4.54615909 C27.1258243,3.76511767 27.1258216,1.59161364 27.1258216,1.59161364 L1.80215962,1.59161364 L1.4084507,1.59161364 L1.40845108,35.6032542 C1.40845109,36.6264729 2.23498674,37.4559556 3.25798099,37.4559556 L25.2762921,37.4559556 C26.2977592,37.4559556 27.125822,36.6170792 27.125822,35.6017567 L27.1258216,7.26906818 C27.1258216,6.86114394 27.4410329,6.53043182 27.8300469,6.53043182 L31.1493897,6.53043182 C34.1761502,6.53043182 36.6385915,9.11319697 36.6385915,12.2878561 L36.6385915,23.2747273 C36.6385915,26.4493864 34.1761502,29.0321515 31.1493897,29.0321515 L28.5342723,29.0321515 L28.5342737,31.0163245 L31.1492958,31.0163258 Z M31.1492958,7.99184848 C33.3994366,7.99184848 35.2300469,9.91190909 35.2300469,12.272 L35.2300469,23.2587727 C35.2300469,25.6188636 33.3994366,27.5389242 31.1492958,27.5389242 L28.5341784,27.5389242 L28.5341784,7.99184848 L31.1492958,7.99184848 L31.1492958,7.99184848 Z" id="Shape" fill="#000000"></path>
                    <path d="M3.298674,19.0555379 C3.298674,18.6476136 3.64735918,18.3169015 4.07768468,18.3169015 C4.50790631,18.3169015 4.85669537,18.6476136 4.85669537,19.0555379 L4.85669537,34.0886707 C4.85669537,34.2991057 5.03217129,34.469697 5.2369436,34.469697 L5.55208403,34.469697 C6.07974754,34.469697 6.31241266,34.8377421 6.31241266,35.1704166 C6.31241266,35.5030109 6.07974754,35.9696212 5.55208403,35.9696212 L4.55714613,35.969621 C3.86211116,35.9696209 3.298674,35.406859 3.298674,34.6983156 L3.298674,19.0555379 L3.298674,19.0555379 Z" id="Combined-Shape" fill="#FFFFFF"></path>
                    <g id="noun_49834_cc" transform="translate(6.390244, 16.333333)" fill="#000000">
                        <g id="Group">
                            <path d="M1.26665151,4.73327938 C1.44433488,4.91098072 1.67764967,5 1.9106273,5 C2.14326776,5 2.37624539,4.91098072 2.55392877,4.73327938 L3.5,3.78744962 L4.44607123,4.73327938 C4.62375461,4.91098072 4.85673224,5 5.08937271,5 C5.32235033,5 5.55566513,4.91098072 5.73334849,4.73327938 C6.0890524,4.37753949 6.08871524,3.80127459 5.73334849,3.4458719 L4.78727726,2.50004215 L5.73334849,1.5542124 C6.08871524,1.19847251 6.0890524,0.62220761 5.73334849,0.266804916 C5.3776446,-0.0885977779 4.80143798,-0.0889349721 4.44607123,0.266804916 L3.5,1.21263467 L2.55392877,0.266804916 C2.19822486,-0.0889349721 1.62201825,-0.0889349721 1.26665151,0.266804916 C0.911284764,0.622544804 0.911284764,1.1988097 1.26665151,1.5542124 L2.21272274,2.50004215 L1.26665151,3.4458719 C0.911284764,3.80161179 0.910947604,4.37787669 1.26665151,4.73327938 L1.26665151,4.73327938 L1.26665151,4.73327938 Z" id="Shape"></path>
                            <ellipse id="Oval-19" cx="7.95121951" cy="10.8484849" rx="2.43902439" ry="2.46212121"></ellipse>
                            <path d="M10.2666515,4.73327938 C10.4443349,4.91098072 10.6776497,5 10.9106273,5 C11.1432678,5 11.3762454,4.91098072 11.5539288,4.73327938 L12.5,3.78744962 L13.4460713,4.73327938 C13.6237547,4.91098072 13.8567323,5 14.0893727,5 C14.3223503,5 14.5556651,4.91098072 14.7333484,4.73327938 C15.0890524,4.37753949 15.0887153,3.80127459 14.7333484,3.4458719 L13.7872773,2.50004215 L14.7333484,1.5542124 C15.0887153,1.19847251 15.0890524,0.62220761 14.7333484,0.266804916 C14.3776446,-0.0885977779 13.801438,-0.0889349721 13.4460713,0.266804916 L12.5,1.21263467 L11.5539288,0.266804916 C11.1982249,-0.0889349721 10.6220183,-0.0889349721 10.2666515,0.266804916 C9.91128476,0.622544804 9.91128476,1.1988097 10.2666515,1.5542124 L11.2127227,2.50004215 L10.2666515,3.4458719 C9.91128476,3.80161179 9.9109476,4.37787669 10.2666515,4.73327938 L10.2666515,4.73327938 L10.2666515,4.73327938 Z" id="Shape-Copy"></path>
                        </g>
                    </g>
                </g>
            </g>
        </g>
    </g>
</svg>