<?xml version="1.0" encoding="UTF-8" standalone="no"?>
<svg width="40px" height="39px" viewBox="0 0 40 39" version="1.1" xmlns="http://www.w3.org/2000/svg" xmlns:xlink="http://www.w3.org/1999/xlink">
    <!-- Generator: Sketch 3.7.2 (28276) - http://www.bohemiancoding.com/sketch -->
    <title>beer-flat</title>
    <desc>Created with Sketch.</desc>
    <defs></defs>
    <g id="Page-1" stroke="none" stroke-width="1" fill="none" fill-rule="evenodd">
        <g id="beer-flat">
            <path d="M28.5341784,3.0530303 L28.5341784,0.837121212 C28.5341784,0.42919697 28.2189671,0.0984848485 27.8299531,0.0984848485 L0.704225352,0.0984848485 C0.315211268,0.0984848485 -1.04246293e-17,0.42919697 -1.04246293e-17,0.837121212 L-1.04246293e-17,35.9925083 C-1.04246293e-17,37.6078655 1.3190398,38.9173712 2.91957189,38.9173712 L25.6147018,38.9173712 C27.2271368,38.9173712 28.5342734,37.6142362 28.5342731,35.999066 L28.5342723,32.4778409 L31.1493897,32.4778409 C35.9959624,32.4778409 39.9388732,28.3421667 39.9388732,23.2588712 L39.9388732,12.272 C39.9387793,7.18870455 35.9958685,3.0530303 31.1492958,3.0530303 L28.5341784,3.0530303 Z M31.1492958,7.99184848 C33.3994366,7.99184848 35.2300469,9.91190909 35.2300469,12.272 L35.2300469,23.2587727 C35.2300469,25.6188636 33.3994366,27.5389242 31.1492958,27.5389242 L28.5341784,27.5389242 L28.5341784,7.99184848 L31.1492958,7.99184848 Z" id="Combined-Shape" fill="#FFFFFF"></path>
            <path d="M27.156338,4.66207576 L27.156338,1.46131818 L1.83737089,1.46131818 L1.43906103,1.46131818 L1.43906103,9.35468182 L27.1564319,9.35468182 L27.1564319,7.13877273 C27.1564319,6.73084848 27.4716432,6.40013636 27.8605634,6.40013636 L27.8605634,5.40061364 C27.4715493,5.40071212 27.156338,5.07 27.156338,4.66207576 L27.156338,4.66207576 Z" id="Shape" fill="#FFFFFF"></path>
            <path d="M27.156338,29.7565318 L27.156338,12.8030303 L1.43906103,12.8030303 L1.43906103,37.3257576 L27.1564319,37.3257576 L27.1564319,32.0489769 C27.1564319,31.6713999 27.4716432,31.3652908 27.8605634,31.3652908 L27.8605634,30.4403091 C27.4715493,30.4402179 27.156338,30.1341088 27.156338,29.7565318 L27.156338,29.7565318 Z" id="Shape" fill="#F59B45"></path>
            <path d="M28.5341784,2.95454545 L28.5341784,0.738636364 C28.5341784,0.330712121 28.2189671,2.79910775e-15 27.8299531,2.79910775e-15 L0.704225352,2.79910775e-15 C0.315211268,2.79910775e-15 -1.04246293e-17,0.330712121 -1.04246293e-17,0.738636364 L-1.04246293e-17,35.8940234 C-1.04246293e-17,37.5093806 1.3190398,38.8188864 2.91957189,38.8188864 L25.6147018,38.8188864 C27.2271368,38.8188864 28.5342734,37.5157513 28.5342731,35.9005812 L28.5342723,32.3793561 L31.1493897,32.3793561 C35.9959624,32.3793561 39.9388732,28.2436818 39.9388732,23.1603864 L39.9388732,12.1735152 C39.9387793,7.0902197 35.9958685,2.95454545 31.1492958,2.95454545 L28.5341784,2.95454545 Z M31.1492958,30.9178409 C35.2191549,30.9178409 38.5303286,27.4449697 38.5304225,23.1761439 L38.5304225,12.1893712 C38.5304225,7.92064394 35.2193427,4.44767424 31.1493897,4.44767424 L28.5342723,4.44767424 C28.5342723,4.44767424 27.7129539,4.44767424 27.125823,4.44767424 C27.1258243,3.66663282 27.1258216,1.49312879 27.1258216,1.49312879 L1.80215962,1.49312879 L1.4084507,1.49312879 L1.4084507,11.3561894 L27.1258216,11.3561894 L27.1258216,7.17058333 C27.1258216,6.76265909 27.4410329,6.43194697 27.8300469,6.43194697 L31.1493897,6.43194697 C34.1761502,6.43194697 36.6385915,9.01471212 36.6385915,12.1893712 L36.6385915,23.1762424 C36.6385915,26.3509015 34.1761502,28.9336667 31.1493897,28.9336667 L28.5342723,28.9336667 L28.5342737,30.9178396 C28.9671822,30.9178396 28.0042364,30.9178396 27.1257284,30.9178396 L27.1258216,12.8334621 L1.4084507,12.8334621 L1.4084507,35.4940545 C1.4084507,36.5231903 2.23498334,37.3574697 3.25797384,37.3574697 L25.2762046,37.3574697 C26.297668,37.3574697 27.1257278,36.5287839 27.1257279,35.4948619 L27.1257284,30.9178396 M31.1492958,7.89336364 C33.3994366,7.89336364 35.2300469,9.81342424 35.2300469,12.1735152 L35.2300469,23.1602879 C35.2300469,25.5203788 33.3994366,27.4404394 31.1492958,27.4404394 L28.5341784,27.4404394 L28.5341784,7.89336364 L31.1492958,7.89336364 Z" id="Shape" fill="#000000"></path>
            <path d="M17.4334644,27.0833333 L11.2494624,27.0833333 C10.8019205,27.0833333 10.4390244,27.4581776 10.4390244,27.9204545 C10.4390244,28.3827315 10.8019205,28.7575758 11.2494624,28.7575758 L17.4334644,28.7575758 C17.8810063,28.7575758 18.2439024,28.3827315 18.2439024,27.9204545 C18.2439024,27.4581776 17.8810063,27.0833333 17.4334644,27.0833333 L17.4334644,27.0833333 Z" id="Shape" fill="#000000"></path>
            <g id="Group-10" transform="translate(8.390244, 18.810606)" fill="#000000">
                <path d="M9.95146169,0.0984848485 C10.9754058,0.0984848485 11.804878,0.937508647 11.804878,1.97209254 C11.804878,3.0069212 10.9751636,3.84570024 9.95146169,3.84570024 C8.92727539,3.84570024 8.09756098,3.0069212 8.09756098,1.97209254 C8.09756098,0.937508647 8.92751757,0.0984848485 9.95146169,0.0984848485 L9.95146169,0.0984848485 Z" id="Path"></path>
                <path d="M1.86568569,0.0961704545 C2.88942918,0.0961704545 3.71946529,0.934121487 3.71946529,1.96738258 C3.71946529,3.00088811 2.88942918,3.8385947 1.86568569,3.8385947 C0.842184331,3.8385947 0.0121482176,3.00088811 0.0121482176,1.96738258 C0.0123903519,0.934121487 0.842184331,0.0961704545 1.86568569,0.0961704545 L1.86568569,0.0961704545 Z" id="Path"></path>
            </g>
            <path d="M3.298674,18.957053 C3.298674,18.5491288 3.64735918,18.2184167 4.07768468,18.2184167 C4.50790631,18.2184167 4.85669537,18.5491288 4.85669537,18.957053 L4.85669537,33.9901858 C4.85669537,34.2006208 5.03217129,34.3712121 5.2369436,34.3712121 L5.55208403,34.3712121 C6.07974754,34.3712121 6.31241266,34.7392573 6.31241266,35.0719318 C6.31241266,35.404526 6.07974754,35.8711363 5.55208403,35.8711363 L4.55714613,35.8711362 C3.86211116,35.8711361 3.298674,35.3083742 3.298674,34.5998307 L3.298674,18.957053 Z" id="Combined-Shape" fill="#FFFFFF"></path>
        </g>
    </g>
</svg>