<?xml version="1.0" encoding="UTF-8" standalone="no"?>
<svg width="40px" height="52px" viewBox="0 0 40 52" version="1.1" xmlns="http://www.w3.org/2000/svg" xmlns:xlink="http://www.w3.org/1999/xlink">
    <!-- Generator: Sketch 3.7.2 (28276) - http://www.bohemiancoding.com/sketch -->
    <title>beer-hot</title>
    <desc>Created with Sketch.</desc>
    <defs></defs>
    <g id="Page-1" stroke="none" stroke-width="1" fill="none" fill-rule="evenodd">
        <g id="beer-hot">
            <path d="M28.5341784,16.120983 L28.5341784,13.9092628 C28.5341784,13.5021096 28.2189671,13.1720227 27.8299531,13.1720227 L0.704225352,13.1720227 C0.315211268,13.1720227 -1.04246293e-17,13.5021096 -1.04246293e-17,13.9092628 L-1.04246293e-17,48.9981935 C-1.04246293e-17,50.6104971 1.3190398,51.9175274 2.91957189,51.9175274 L25.6147018,51.9175274 C27.2271368,51.9175274 28.5342734,50.6168558 28.534273,48.9859778 L28.5342723,45.4901701 L31.1493897,45.4901701 C35.9959624,45.4901701 39.9388732,41.3623138 39.9388732,36.2886276 L39.9388732,25.3225255 C39.9387793,20.2488393 35.9958685,16.120983 31.1492958,16.120983 L28.5341784,16.120983 Z M31.1492958,21.050465 C33.3994366,21.050465 35.2300469,22.966896 35.2300469,25.3225255 L35.2300469,36.2885293 C35.2300469,38.6441588 33.3994366,40.5605898 31.1492958,40.5605898 L28.5341784,40.5605898 L28.5341784,21.050465 L31.1492958,21.050465 Z" id="Combined-Shape" fill="#FFFFFF"></path>
            <path d="M27.156338,17.8252854 L27.156338,14.6305784 L1.83737089,14.6305784 L1.43906103,14.6305784 L1.43906103,22.5090208 L27.1564319,22.5090208 L27.1564319,20.2973006 C27.1564319,19.8901474 27.4716432,19.5600605 27.8605634,19.5600605 L27.8605634,18.5624272 C27.4715493,18.5625255 27.156338,18.2324386 27.156338,17.8252854 L27.156338,17.8252854 Z" id="Shape" fill="#FFFFFF"></path>
            <path d="M27.156338,42.902645 L27.156338,26.0491493 L1.43906103,26.0491493 L1.43906103,50.4272212 L27.1564319,50.4272212 L27.1564319,45.1815674 C27.1564319,44.8062176 27.4716432,44.5019142 27.8605634,44.5019142 L27.8605634,43.5823888 C27.4715493,43.5822981 27.156338,43.2779948 27.156338,42.902645 L27.156338,42.902645 Z" id="Shape" fill="#F59B45"></path>
            <path d="M27.7378305,20.1657769 L1.61233986,20.1657769 L1.20134204,20.1657769 L1.20134204,24.5892174 L27.7379274,24.5892174 L27.7378305,20.1657769 Z" id="Shape" fill="#FCEBDC"></path>
            <path d="M28.5341784,16.120983 L28.5341784,13.9092628 C28.5341784,13.5021096 28.2189671,13.1720227 27.8299531,13.1720227 L0.704225352,13.1720227 C0.315211268,13.1720227 -1.04246293e-17,13.5021096 -1.04246293e-17,13.9092628 L-1.04246293e-17,48.9981935 C-1.04246293e-17,50.6104971 1.3190398,51.9175274 2.91957189,51.9175274 L25.6147018,51.9175274 C27.2271368,51.9175274 28.5342734,50.6168558 28.534273,48.9859778 L28.5342723,45.4901701 L31.1493897,45.4901701 C35.9959624,45.4901701 39.9388732,41.3623138 39.9388732,36.2886276 L39.9388732,25.3225255 C39.9387793,20.2488393 35.9958685,16.120983 31.1492958,16.120983 L28.5341784,16.120983 Z M31.1492958,44.0314178 C35.2191549,44.0314178 38.5303286,40.5651115 38.5304225,36.3043554 L38.5304225,25.3383516 C38.5304225,21.0776938 35.2193427,17.6112892 31.1493897,17.6112892 L28.5342723,17.6112892 C28.5342723,17.6112892 27.7129539,17.6112892 27.125823,17.6112892 C27.1258243,16.8317243 27.1258216,14.6623289 27.1258216,14.6623289 L1.80215962,14.6623289 L1.4084507,14.6623289 L1.4084507,24.6050435 L27.1258216,24.6050435 L27.1258216,20.329051 C27.1258216,19.9218979 27.4410329,19.591811 27.8300469,19.591811 L31.1493897,19.591811 C34.1761502,19.591811 36.6385915,22.1696938 36.6385915,25.3383516 L36.6385915,36.3044537 C36.6385915,39.4731115 34.1761502,42.0509943 31.1493897,42.0509943 L28.5342723,42.0509943 L28.5342737,44.0314165 C28.9671822,44.0314165 28.0042364,44.0314165 27.1257284,44.0314165 L27.1258216,26.0795236 L1.4084507,26.0795236 L1.4084507,48.6064497 C1.4084507,49.6295151 2.23498334,50.4588733 3.25797384,50.4588733 L25.2762046,50.4588733 C26.297668,50.4588733 27.1257278,49.6317541 27.1257279,48.5997865 L27.1257284,44.0314165 M31.1492958,21.050465 C33.3994366,21.050465 35.2300469,22.966896 35.2300469,25.3225255 L35.2300469,36.2885293 C35.2300469,38.6441588 33.3994366,40.5605898 31.1492958,40.5605898 L28.5341784,40.5605898 L28.5341784,21.050465 L31.1492958,21.050465 Z" fill="#000000"></path>
            <rect id="Rectangle-19" fill="#000000" x="1.17073171" y="19.6597353" width="26.5365854" height="1.47448015"></rect>
            <path d="M3.298674,32.0932401 C3.298674,31.686087 3.64735918,31.356 4.07768468,31.356 C4.50790631,31.356 4.85669537,31.686087 4.85669537,32.0932401 L4.85669537,47.0979549 C4.85669537,47.3079921 5.03217129,47.4782609 5.2369436,47.4782609 L5.55208403,47.4782609 C6.07974754,47.4782609 6.31241266,47.8456103 6.31241266,48.1776559 C6.31241266,48.5096214 6.07974754,48.9753497 5.55208403,48.9753497 L4.55714613,48.9753495 C3.86211116,48.9753494 3.298674,48.4136514 3.298674,47.7064473 L3.298674,32.0932401 Z" id="Combined-Shape" fill="#FFFFFF"></path>
            <path d="M18.4450827,32.0453686 C19.4690268,32.0453686 20.2984991,32.8828064 20.2984991,33.9154345 C20.2984991,34.948307 19.4687846,35.7855004 18.4450827,35.7855004 C17.4208964,35.7855004 16.591182,34.948307 16.591182,33.9154345 C16.591182,32.8828064 17.4211386,32.0453686 18.4450827,32.0453686 L18.4450827,32.0453686 Z M10.3413423,32.0453686 C11.3650858,32.0453686 12.195122,32.8817356 12.195122,33.9130435 C12.195122,34.9445953 11.3650858,35.7807183 10.3413423,35.7807183 C9.31784099,35.7807183 8.48780488,34.9445953 8.48780488,33.9130435 C8.48804701,32.8817356 9.31784099,32.0453686 10.3413423,32.0453686 L10.3413423,32.0453686 Z" id="Shape" fill="#000000"></path>
            <g id="noun_237465_cc" transform="translate(21.463415, 27.327032)" fill="#000000">
                <g id="Group">
                    <g id="Shape">
                        <path d="M1.69078158,0.136561189 C1.59852461,-0.0455203964 1.30058887,-0.0455203964 1.2083319,0.136561189 C1.0221899,0.502364735 0.0931079671,2.35762846 0.0931079671,2.9957342 C0.0931079671,3.74921295 0.701461268,4.36271307 1.44982809,4.36271307 C2.1981949,4.36271307 2.8065482,3.74921295 2.8065482,2.9957342 C2.8065482,2.35762846 1.87746627,0.502364735 1.69078158,0.136561189 L1.69078158,0.136561189 Z"></path>
                    </g>
                </g>
            </g>
            <path d="M14.4302328,42.3667297 C12.7866605,42.3667297 11.2786279,41.4604837 10.4945002,40.0017585 C10.3739007,39.7777217 10.4564567,39.4971319 10.6788649,39.3754809 C10.9011192,39.2538298 11.1794375,39.3369503 11.299883,39.5612978 C11.9236734,40.7217215 13.1230453,41.442772 14.4302328,41.442772 C15.7372663,41.442772 16.9366382,40.7217215 17.5605826,39.5614532 C17.6808741,39.3371056 17.9587304,39.2538298 18.1814466,39.3753255 C18.4040089,39.4966658 18.4865649,39.7772556 18.3659654,40.0016032 C17.5819917,41.4603283 16.0738051,42.3667297 14.4302328,42.3667297 Z" id="Path" stroke="#000000" stroke-width="0.682926829" fill="#000000" transform="translate(14.430230, 40.843100) rotate(-180.000000) translate(-14.430230, -40.843100) "></path>
            <g id="noun_8597_cc" transform="translate(8.975610, 0.031456)" fill="#000000">
                <g id="Group">
                    <path d="M1.2289678,11.0823108 C1.01756878,11.0823108 0.806626341,11.000424 0.647734634,10.8366506 C0.330407805,10.512784 0.333603902,9.99156113 0.655496585,9.67183486 C1.67322537,8.66159183 1.80791805,7.32426193 1.01437268,6.09688106 C-0.38140878,3.93562344 -0.299223415,1.85993285 1.24494829,0.250260567 C1.55862244,-0.0749861626 2.07593366,-0.0851069943 2.40102244,0.230938979 C2.72565463,0.547444991 2.73387317,1.06866783 2.42019902,1.39575471 C2.05219122,1.77942624 0.931730732,2.94792227 2.38412878,5.19796718 C3.59681951,7.0744614 3.36852683,9.29138359 1.80380878,10.8449313 C1.64354732,11.0036443 1.43671415,11.0823108 1.2289678,11.0823108 L1.2289678,11.0823108 L1.2289678,11.0823108 Z M5.10446439,11.0823108 C4.89306537,11.0823108 4.68166634,11.000424 4.52231805,10.8366506 C4.2054478,10.512784 4.20818732,9.99156113 4.53053659,9.67183486 C5.54872195,8.66159183 5.68250146,7.32426193 4.8889561,6.09688106 C3.4940878,3.93562344 3.57536,1.85993285 5.11998829,0.250260567 C5.43411902,-0.0749861626 5.95097366,-0.0851069943 6.27606244,0.230938979 C6.60023805,0.547444991 6.60891317,1.06866783 6.29523902,1.39575471 C5.92677463,1.77942624 4.80677073,2.94792227 6.25962537,5.19796718 C7.4723161,7.0744614 7.24356683,9.29138359 5.67930537,10.8449313 C5.51950049,11.0036443 5.31221073,11.0823108 5.10446439,11.0823108 L5.10446439,11.0823108 L5.10446439,11.0823108 Z M8.97996098,11.0823108 C8.76810537,11.0823108 8.55761951,11.000424 8.39827122,10.8366506 C8.08094439,10.512784 8.08414049,9.99156113 8.40603317,9.67183486 C9.42376195,8.66159183 9.55845463,7.32426193 8.76445268,6.09688106 C7.36958439,3.93562344 7.45131317,1.85993285 8.99548488,0.250260567 C9.30915902,-0.0749861626 9.82647024,-0.0851069943 10.151559,0.230938979 C10.4757346,0.547444991 10.4844098,1.06866783 10.170279,1.39575471 C9.8027278,1.77942624 8.68181073,2.94792227 10.1346654,5.19796718 C11.3473561,7.0744614 11.1190634,9.29138359 9.55434537,10.8449313 C9.3940839,11.0036443 9.18725073,11.0823108 8.97996098,11.0823108 L8.97996098,11.0823108 L8.97996098,11.0823108 Z" id="Shape"></path>
                </g>
            </g>
        </g>
    </g>
</svg>