<?xml version="1.0" encoding="UTF-8" standalone="no"?>
<svg width="40px" height="46px" viewBox="0 0 40 46" version="1.1" xmlns="http://www.w3.org/2000/svg" xmlns:xlink="http://www.w3.org/1999/xlink">
    <!-- Generator: Sketch 3.7.2 (28276) - http://www.bohemiancoding.com/sketch -->
    <title>beer-foamy</title>
    <desc>Created with Sketch.</desc>
    <defs></defs>
    <g id="Page-1" stroke="none" stroke-width="1" fill="none" fill-rule="evenodd">
        <g id="beer-foamy">
            <path d="M28.5341784,10.2765957 L28.5341784,8.07446809 C28.5341784,7.66908085 28.2189671,7.34042553 27.8299531,7.34042553 L0.704225352,7.34042553 C0.315211268,7.34042553 -1.04246293e-17,7.66908085 -1.04246293e-17,8.07446809 L-1.04246293e-17,42.995557 C-1.04246293e-17,44.6095142 1.3190398,45.9178851 2.91957189,45.9178851 L25.6147018,45.9178851 C27.2271368,45.9178851 28.5342734,44.6074122 28.534273,42.99905 L28.5342723,39.5184043 L31.1493897,39.5184043 C35.9959624,39.5184043 39.9388732,35.4084511 39.9388732,30.3567702 L39.9388732,19.4382298 C39.9387793,14.3865489 35.9958685,10.2765957 31.1492958,10.2765957 L28.5341784,10.2765957 Z M31.1492958,15.1846979 C33.3994366,15.1846979 35.2300469,17.092817 35.2300469,19.4382298 L35.2300469,30.3566723 C35.2300469,32.7020851 33.3994366,34.6102043 31.1492958,34.6102043 L28.5341784,34.6102043 L28.5341784,15.1846979 L31.1492958,15.1846979 Z" id="Combined-Shape" fill="#FFFFFF"></path>
            <path d="M25.8165945,7.42254043 C24.490679,3.87378723 21.1774396,1.46808511 17.4604443,1.46808511 C14.8241063,1.46808511 12.331618,2.67250213 10.6220405,4.77264681 C10.4205382,5.01997021 10.0875804,5.10042128 9.80232223,4.96995745 C9.11772129,4.65705957 8.39312035,4.49840851 7.648895,4.49840851 C5.64560861,4.49840851 3.85293255,5.63989362 2.92682927,7.42254043 L25.8165945,7.42254043 L25.8165945,7.42254043 Z" id="Shape" fill="#FCEBDC"></path>
            <path d="M27.156338,12.0713787 L27.156338,8.89052766 L1.83737089,8.89052766 L1.43906103,8.89052766 L1.43906103,16.7348 L27.1564319,16.7348 L27.1564319,14.5326723 C27.1564319,14.1272851 27.4716432,13.7986298 27.8605634,13.7986298 L27.8605634,12.8053234 C27.4715493,12.8054213 27.156338,12.476766 27.156338,12.0713787 L27.156338,12.0713787 Z" id="Shape" fill="#FFFFFF"></path>
            <path d="M27.156338,40.6046878 L27.156338,31.8085106 L1.43906103,31.8085106 L1.43906103,44.5319149 L27.1564319,44.5319149 L27.1564319,41.794103 C27.1564319,41.5982005 27.4716432,41.4393784 27.8605634,41.4393784 L27.8605634,40.9594597 C27.4715493,40.9594124 27.156338,40.8005904 27.156338,40.6046878 L27.156338,40.6046878 Z" id="Shape" fill="#F59B45"></path>
            <rect id="Rectangle" fill="#FCEBDC" x="1.07219173" y="8.61276596" width="26.7073213" height="22.3148936"></rect>
            <path d="M28.5081481,10.3587106 L28.5081481,8.15658298 C28.5081481,7.75119574 28.1932244,7.42254043 27.8045652,7.42254043 L27.2297848,7.42254043 C25.839505,3.02582128 21.8662315,0 17.3861907,0 C14.5076922,0 11.7777905,1.24288085 9.81882803,3.42739149 C9.09976628,3.16362553 8.35012213,3.0303234 7.58359199,3.0303234 C4.80415801,3.0303234 2.34527641,4.77440851 1.31110332,7.42254043 L0.703582923,7.42254043 C0.314923716,7.42254043 -1.04151195e-17,7.75119574 -1.04151195e-17,8.15658298 L-1.04151195e-17,43.0776719 C-1.04151195e-17,44.6916291 1.31783651,46 2.91690851,46 L25.5913348,46 C27.2022989,46 28.508243,44.6895271 28.5082427,43.0811649 L28.5082419,39.6005191 L31.1209737,39.6005191 C35.9631251,39.6005191 39.902439,35.490566 39.902439,30.4388851 L39.902439,19.5203447 C39.9023452,14.4686638 35.9630313,10.3587106 31.1208798,10.3587106 L28.5081481,10.3587106 Z M31.1208798,38.1480936 C35.1870263,38.1480936 38.4951794,34.6968213 38.4952732,30.4545447 L38.4952732,19.5361021 C38.4952732,15.2939234 35.1872139,11.8425532 31.1209737,11.8425532 L28.5082419,11.8425532 C28.5082419,11.8425532 27.6876728,11.8425532 27.1010775,11.8425532 C27.1010788,11.0663693 27.1010761,8.90638298 27.1010761,8.90638298 L1.80051561,8.90638298 L1.40716585,8.90638298 L1.40716585,30.452783 L27.1010761,30.452783 L27.1010761,14.5485277 C27.1010761,14.1431404 27.4159998,13.8144851 27.804659,13.8144851 L31.1209737,13.8144851 C34.1449731,13.8144851 36.605168,16.3811872 36.605168,19.5361021 L36.605168,30.4546426 C36.605168,33.6095574 34.1449731,36.1762596 31.1209737,36.1762596 L28.5082419,36.1762596 L28.5082433,38.1480923 C28.9407569,38.1480923 27.9786895,38.1480923 27.100983,38.1480923 L27.1010761,31.9208681 L1.40716585,31.9208681 L1.40716585,42.6845439 C1.40716585,43.7135213 2.23294447,44.5476723 3.25500176,44.5476723 L25.2531464,44.5476723 C26.273678,44.5476723 27.1009824,43.711039 27.1009825,42.6966486 L27.100983,38.1480923 M31.1208798,15.2668128 C33.368968,15.2668128 35.1979084,17.1749319 35.1979084,19.5203447 L35.1979084,30.4387872 C35.1979084,32.7842 33.368968,34.6923191 31.1208798,34.6923191 L28.5081481,34.6923191 L28.5081481,15.2668128 L31.1208798,15.2668128 Z M9.73505475,4.96985957 C10.0200527,5.1003234 10.3528006,5.01987234 10.5540253,4.77254894 C12.2620432,2.67250213 14.7522577,1.46808511 17.3861907,1.46808511 C21.0997952,1.46808511 24.4100121,3.87378723 25.734718,7.42254043 L2.86583396,7.42254043 C3.79109241,5.63989362 5.58203929,4.49831064 7.58359199,4.49831064 C8.32713842,4.49831064 9.05107834,4.6569617 9.73505475,4.96985957 Z" id="Shape" fill="#000000"></path>
            <g id="Group-8" transform="translate(12.000000, 32.689362)" fill="#000000">
                <path d="M2.94747897,0.945661589 C2.99514275,0.854657136 3.11689193,0.814063815 3.21567881,0.854701256 C3.21567881,0.854701256 3.23024087,0.858322395 3.26848598,0.878420045 C3.8144733,1.16533413 4.19512195,1.81126068 4.19512195,2.56210667 C4.19512195,3.57949728 3.49624937,4.40425532 2.63414634,4.40425532 C1.77204332,4.40425532 1.07317073,3.57949728 1.07317073,2.56210667 C1.07317073,2.49879496 1.07317073,2.56210667 1.07317073,2.56210667 C1.07758354,2.4585285 1.1617083,2.34976665 1.26669612,2.31545698 C1.26669612,2.31545698 1.22404994,2.33173161 1.29687328,2.30469116 C1.55749051,2.20791993 1.82800607,2.06336231 2.08829748,1.87364598 C2.45267678,1.60806401 2.73934958,1.29601858 2.92442317,0.987950853 C2.93857073,0.964401264 2.94747897,0.945661589 2.94747897,0.945661589 Z" id="Combined-Shape"></path>
                <path d="M10.4390244,1.10170814 C10.4390244,2.11485357 9.7401518,2.93617021 8.87804878,2.93617021 C8.01594576,2.93617021 7.31707317,2.11485357 7.31707317,1.10170814 C7.31707317,0.79873555 7.37957045,0.512917412 7.49024084,0.261087522 C7.53865325,0.150925332 7.49024084,0.261087522 7.49024084,0.261087522 C7.58506446,0.0901192333 7.78682298,0.0676532425 7.90366208,0.164803025 C7.90366208,0.164803025 7.81183231,0.0972955992 7.90366208,0.164803025 C8.21520556,0.393830041 8.65025326,0.576774631 9.14747735,0.664728464 C9.44921383,0.718102548 9.74136042,0.730749013 10.0073122,0.70823605 C10.1426405,0.696780431 10.0929514,0.698357912 10.0929514,0.698357912 C10.2574277,0.670154981 10.4159193,0.78548696 10.4320628,0.927316706 C10.4320628,0.927316706 10.4390244,0.944859956 10.4390244,1.10170814 Z" id="Combined-Shape"></path>
                <path d="M11.6570822,8.22854123 C11.823643,8.09086924 11.8274051,7.70336251 11.77524,7.5357973 C11.2809838,5.94814398 9.80258496,4.79574468 8.05561828,4.79574468 C7.50904641,4.79574468 6.70991176,4.95984263 6.2378336,5.16348943 C4.8515775,5.76149764 2.24383719,7.49016968 0.190597405,9.71612964 C-0.0374157374,9.96332343 0.0141005148,10.2782432 0.0141005148,10.2782432 C0.0110701099,10.4862989 0.174744899,10.6904419 0.386727035,10.7153292 C0.386727035,10.7153292 0.680526219,10.8437627 1.0177837,10.5715005 C5.44007279,7.00146213 6.05126397,6.51155141 8.05561828,6.35747576 C9.26394069,6.26459145 10.3003487,7.08498545 10.8741552,8.07205137 C11.0292416,8.33883212 11.4581335,8.39298361 11.6570822,8.22854123 Z" id="Combined-Shape"></path>
            </g>
            <rect id="Rectangle-7" fill="#FCEBDC" x="18.6341463" y="6.36170213" width="3.80487805" height="10.7659574"></rect>
            <path d="M22.4390244,15.0723332 C22.9799597,15.5893089 23.3170732,16.3189901 23.3170732,17.1276596 C23.3170732,18.6952082 22.0503666,19.9659574 20.4878049,19.9659574 C18.9252431,19.9659574 17.6585366,18.6952082 17.6585366,17.1276596 C17.6585366,16.271415 18.0364825,15.5037261 18.6341463,14.9833259 L18.6341463,17.1276596 L18.9275543,17.1276596 C18.9270721,17.1439125 18.9268293,17.1602257 18.9268293,17.1765957 C18.9268293,18.0684769 19.6475416,18.7914894 20.5365854,18.7914894 C21.4256291,18.7914894 22.1463415,18.0684769 22.1463415,17.1765957 C22.1463415,17.1602257 22.1460987,17.1439125 22.1456165,17.1276596 L22.4390244,17.1276596 L22.4390244,15.0723332 Z" id="Combined-Shape" fill="#000000"></path>
            <path d="M3.298674,26.2774511 C3.298674,25.8720638 3.64735918,25.5434085 4.07768468,25.5434085 C4.50790631,25.5434085 4.85669537,25.8720638 4.85669537,26.2774511 L4.85669537,41.2016945 C4.85669537,41.4193224 5.03217129,41.5957447 5.2369436,41.5957447 L5.55208403,41.5957447 C6.07974754,41.5957447 6.31241266,41.9615008 6.31241266,42.2921064 C6.31241266,42.6226321 6.07974754,43.0863404 5.55208403,43.0863404 L4.55714613,43.0863402 C3.86211116,43.0863401 3.298674,42.5270782 3.298674,41.8229414 L3.298674,26.2774511 Z" id="Combined-Shape" fill="#FFFFFF"></path>
            <rect id="Rectangle-5" fill="#000000" x="22.1463415" y="7.43829787" width="1.17073171" height="9.78723404"></rect>
            <rect id="Rectangle-5-Copy" fill="#000000" x="17.6585366" y="7.43829787" width="1.26829268" height="9.78723404"></rect>
        </g>
    </g>
</svg>