<?xml version="1.0" encoding="UTF-8" standalone="no"?>
<svg width="40px" height="48px" viewBox="0 0 40 48" version="1.1" xmlns="http://www.w3.org/2000/svg" xmlns:xlink="http://www.w3.org/1999/xlink">
    <!-- Generator: Sketch 3.7.2 (28276) - http://www.bohemiancoding.com/sketch -->
    <title>beer-slow</title>
    <desc>Created with Sketch.</desc>
    <defs></defs>
    <g id="Page-1" stroke="none" stroke-width="1" fill="none" fill-rule="evenodd">
        <g id="beer-slow">
            <path d="M28.5341784,12.6060606 L28.5341784,10.4242424 C28.5341784,10.0225939 28.2189671,9.6969697 27.8299531,9.6969697 L0.704225352,9.6969697 C0.315211268,9.6969697 -1.04246293e-17,10.0225939 -1.04246293e-17,10.4242424 L-1.04246293e-17,44.9921371 C-1.04246293e-17,46.6084014 1.3190398,47.9186424 2.91957189,47.9186424 L25.6147018,47.9186424 C27.2271368,47.9186424 28.5342734,46.6048949 28.534273,44.9896869 L28.5342723,41.5781818 L31.1493897,41.5781818 C35.9959624,41.5781818 39.9388732,37.5061333 39.9388732,32.5010424 L39.9388732,21.6832 C39.9387793,16.6781091 35.9958685,12.6060606 31.1492958,12.6060606 L28.5341784,12.6060606 Z M31.1492958,17.468897 C33.3994366,17.468897 35.2300469,19.3594182 35.2300469,21.6832 L35.2300469,32.5009455 C35.2300469,34.8247273 33.3994366,36.7152485 31.1492958,36.7152485 L28.5341784,36.7152485 L28.5341784,17.468897 L31.1492958,17.468897 Z" id="Combined-Shape" fill="#FFFFFF"></path>
            <path d="M27.156338,14.2873212 L27.156338,11.1358061 L1.83737089,11.1358061 L1.43906103,11.1358061 L1.43906103,18.9077333 L27.1564319,18.9077333 L27.1564319,16.7259152 C27.1564319,16.3242667 27.4716432,15.9986424 27.8605634,15.9986424 L27.8605634,15.014497 C27.4715493,15.0145939 27.156338,14.6889697 27.156338,14.2873212 L27.156338,14.2873212 Z" id="Shape" fill="#FFFFFF"></path>
            <path d="M27.156338,41.0835935 L27.156338,29.0673455 L1.43906103,29.0673455 L1.43906103,46.4484848 L27.1564319,46.4484848 L27.1564319,42.7084253 C27.1564319,42.4408075 27.4716432,42.2238445 27.8605634,42.2238445 L27.8605634,41.5682389 C27.4715493,41.5681743 27.156338,41.3512113 27.156338,41.0835935 L27.156338,41.0835935 Z" id="Shape" fill="#F59B45"></path>
            <path d="M27.7378305,28.2325333 L1.61233986,28.2325333 L1.20134204,28.2325333 L1.20134204,32.5961697 L27.7379274,32.5961697 L27.7378305,28.2325333 Z" id="Shape" fill="#FCEBDC"></path>
            <path d="M28.5341784,12.6060606 L28.5341784,10.4242424 C28.5341784,10.0225939 28.2189671,9.6969697 27.8299531,9.6969697 L0.704225352,9.6969697 C0.315211268,9.6969697 -1.04246293e-17,10.0225939 -1.04246293e-17,10.4242424 L-1.04246293e-17,44.9921371 C-1.04246293e-17,46.6084014 1.3190398,47.9186424 2.91957189,47.9186424 L25.6147018,47.9186424 C27.2271368,47.9186424 28.5342734,46.6048949 28.534273,44.9896869 L28.5342723,41.5781818 L31.1493897,41.5781818 C35.9959624,41.5781818 39.9388732,37.5061333 39.9388732,32.5010424 L39.9388732,21.6832 C39.9387793,16.6781091 35.9958685,12.6060606 31.1492958,12.6060606 L28.5341784,12.6060606 Z M31.1492958,40.1391515 C35.2191549,40.1391515 38.5303286,36.7197091 38.5304225,32.5165576 L38.5304225,21.6988121 C38.5304225,17.4957576 35.2193427,14.0762182 31.1493897,14.0762182 L28.5342723,14.0762182 C28.5342723,14.0762182 27.7129539,14.0762182 27.125823,14.0762182 C27.1258243,13.3071928 27.1258216,11.1671273 27.1258216,11.1671273 L1.80215962,11.1671273 L1.4084507,11.1671273 L1.4084507,32.6117818 L27.1258216,32.6117818 L27.1258216,16.7572364 C27.1258216,16.3555879 27.4410329,16.0299636 27.8300469,16.0299636 L31.1493897,16.0299636 C34.1761502,16.0299636 36.6385915,18.5729939 36.6385915,21.6988121 L36.6385915,32.5166545 C36.6385915,35.6424727 34.1761502,38.185503 31.1493897,38.185503 L28.5342723,38.185503 L28.5342737,40.1391502 C28.9671822,40.1391502 28.0042364,40.1391502 27.1257284,40.1391502 L27.1258216,34.0663273 L1.4084507,34.0663273 L1.4084507,44.6213004 C1.4084507,45.6476712 2.23498334,46.4797091 3.25797384,46.4797091 L25.2762046,46.4797091 C26.297668,46.4797091 27.1257278,45.6507918 27.1257279,44.6287122 L27.1257284,40.1391502 M31.1492958,17.468897 C33.3994366,17.468897 35.2300469,19.3594182 35.2300469,21.6832 L35.2300469,32.5009455 C35.2300469,34.8247273 33.3994366,36.7152485 31.1492958,36.7152485 L28.5341784,36.7152485 L28.5341784,17.468897 L31.1492958,17.468897 Z" id="beer-hot" fill="#000000"></path>
            <g id="Group-10" transform="translate(8.780488, 36.460606)" fill="#000000">
                <path d="M9.95146169,0.096969697 C10.9754058,0.096969697 11.804878,0.923085438 11.804878,1.94175266 C11.804878,2.96066087 10.9751636,3.78653562 9.95146169,3.78653562 C8.92727539,3.78653562 8.09756098,2.96066087 8.09756098,1.94175266 C8.09756098,0.923085438 8.92751757,0.096969697 9.95146169,0.096969697 L9.95146169,0.096969697 Z" id="Path"></path>
                <path d="M1.86568569,0.0946909091 C2.88942918,0.0946909091 3.71946529,0.919750387 3.71946529,1.93711515 C3.71946529,2.9547206 2.88942918,3.77953939 1.86568569,3.77953939 C0.842184331,3.77953939 0.0121482176,2.9547206 0.0121482176,1.93711515 C0.0123903519,0.919750387 0.842184331,0.0946909091 1.86568569,0.0946909091 L1.86568569,0.0946909091 Z" id="Path"></path>
                <path d="M9.04322055,6.69090909 L2.85921848,6.69090909 C2.41167661,6.69090909 2.04878049,7.05998653 2.04878049,7.51515152 C2.04878049,7.9703165 2.41167661,8.33939394 2.85921848,8.33939394 L9.04322055,8.33939394 C9.49076241,8.33939394 9.85365854,7.9703165 9.85365854,7.51515152 C9.85365854,7.05998653 9.49076241,6.69090909 9.04322055,6.69090909 L9.04322055,6.69090909 Z" id="Shape"></path>
            </g>
            <path d="M3.298674,28.3623758 C3.298674,27.9607273 3.64735918,27.635103 4.07768468,27.635103 C4.50790631,27.635103 4.85669537,27.9607273 4.85669537,28.3623758 L4.85669537,43.1489779 C4.85669537,43.3645987 5.03217129,43.5393939 5.2369436,43.5393939 L5.55208403,43.5393939 C6.07974754,43.5393939 6.31241266,43.9017769 6.31241266,44.2293333 C6.31241266,44.5568107 6.07974754,45.0162424 5.55208403,45.0162424 L4.55714613,45.0162422 C3.86211116,45.0162421 3.298674,44.4429783 3.298674,43.7508262 L3.298674,28.3623758 Z" id="Combined-Shape" fill="#FFFFFF"></path>
            <g id="noun_237465_cc" transform="translate(12.487805, 0.000000)">
                <g id="Group">
                    <g id="Shape">
                        <path d="M2.0730012,13.1608828 C1.95867313,12.9382916 1.5894607,12.9382916 1.47513263,13.1608828 C1.24445893,13.6080707 0.0931079671,15.8760951 0.0931079671,16.6561672 C0.0931079671,17.5772806 0.847000739,18.3272727 1.77440318,18.3272727 C2.70180561,18.3272727 3.45569838,17.5772806 3.45569838,16.6561672 C3.45569838,15.8760951 2.30434743,13.6080707 2.0730012,13.1608828 L2.0730012,13.1608828 Z" fill="#F59B45"></path>
                        <path d="M15.0543864,7.06199715 L15.0543864,2.68183038 C15.0543864,1.72658125 15.0543866,0.011323978 12.4556958,0.011323978 L9.35505154,0.011323978 L0.0835673811,0.011323978 L0.0835673811,3.80017082 L9.35505154,3.80017084 L11.2079217,3.80017084 C11.6535487,3.80017084 12.0053598,3.80017082 12.0053595,4.59232866 L12.0053595,7.06199715 L15.0543864,7.06199715 Z" fill="#000000" transform="translate(7.568977, 3.536661) scale(-1, 1) translate(-7.568977, -3.536661) "></path>
                    </g>
                </g>
            </g>
            <g id="noun_237465_cc-copy" transform="translate(12.682927, 21.333333)" fill="#F59B45">
                <g id="Group">
                    <g id="Shape-Copy-2">
                        <path d="M1.97989324,0.166943444 C1.86556516,-0.0556478145 1.49635274,-0.0556478145 1.38202466,0.166943444 C1.15135096,0.614131286 0,2.88215573 0,3.66222779 C0,4.58334117 0.753892772,5.33333333 1.68129521,5.33333333 C2.60869765,5.33333333 3.36259042,4.58334117 3.36259042,3.66222779 C3.36259042,2.88215573 2.21123946,0.614131286 1.97989324,0.166943444 L1.97989324,0.166943444 Z"></path>
                    </g>
                </g>
            </g>
        </g>
    </g>
</svg>