<?xml version="1.0" encoding="UTF-8" standalone="no"?>
<svg width="40px" height="39px" viewBox="0 0 40 39" version="1.1" xmlns="http://www.w3.org/2000/svg" xmlns:xlink="http://www.w3.org/1999/xlink">
    <!-- Generator: Sketch 3.7.2 (28276) - http://www.bohemiancoding.com/sketch -->
    <title>beer-empty</title>
    <desc>Created with Sketch.</desc>
    <defs></defs>
    <g id="Page-1" stroke="none" stroke-width="1" fill="none" fill-rule="evenodd">
        <g id="beer-empty">
            <path d="M28.5341784,3.03717424 L28.5341784,0.821265152 C28.5341784,0.413340909 28.2189671,0.0826287879 27.8299531,0.0826287879 L0.704225352,0.0826287879 C0.315211268,0.0826287879 -1.04246293e-17,0.413340909 -1.04246293e-17,0.821265152 L-1.04246293e-17,35.9766522 C-1.04246293e-17,37.5920094 1.3190398,38.9015152 2.91957189,38.9015152 L25.6147018,38.9015152 C27.2271368,38.9015152 28.5342734,37.5983801 28.5342731,35.9832099 L28.5342723,32.4619848 L31.1493897,32.4619848 C35.9959624,32.4619848 39.9388732,28.3263106 39.9388732,23.2430152 L39.9388732,12.2561439 C39.9387793,7.17284848 35.9958685,3.03717424 31.1492958,3.03717424 L28.5341784,3.03717424 Z M31.1492958,7.97599242 C33.3994366,7.97599242 35.2300469,9.89605303 35.2300469,12.2561439 L35.2300469,23.2429167 C35.2300469,25.6030076 33.3994366,27.5230682 31.1492958,27.5230682 L28.5341784,27.5230682 L28.5341784,7.97599242 L31.1492958,7.97599242 Z" id="Combined-Shape" fill="#FFFFFF"></path>
            <path d="M27.156338,4.76056061 L27.156338,1.55980303 L1.83737089,1.55980303 L1.43906103,1.55980303 L1.43906103,9.45316667 L27.1564319,9.45316667 L27.1564319,7.23725758 C27.1564319,6.82933333 27.4716432,6.49862121 27.8605634,6.49862121 L27.8605634,5.49909848 C27.4715493,5.49919697 27.156338,5.16848485 27.156338,4.76056061 L27.156338,4.76056061 Z" id="Shape" fill="#FFFFFF"></path>
            <path d="M28.5341784,3.0530303 L28.5341784,0.837121212 C28.5341784,0.42919697 28.2189671,0.0984848485 27.8299531,0.0984848485 L0.704225352,0.0984848485 C0.315211268,0.0984848485 -1.04246293e-17,0.42919697 -1.04246293e-17,0.837121212 L-1.04246293e-17,35.9925083 C-1.04246293e-17,37.6078655 1.3190398,38.9173712 2.91957189,38.9173712 L25.6147018,38.9173712 C27.2271368,38.9173712 28.5342734,37.6142362 28.5342731,35.999066 L28.5342723,32.4778409 L31.1493897,32.4778409 C35.9959624,32.4778409 39.9388732,28.3421667 39.9388732,23.2588712 L39.9388732,12.272 C39.9387793,7.18870455 35.9958685,3.0530303 31.1492958,3.0530303 L28.5341784,3.0530303 Z M31.1492958,31.0163258 C35.2191549,31.0163258 38.5303286,27.5434545 38.5304225,23.2746288 L38.5304225,12.2878561 C38.5304225,8.01912879 35.2193427,4.54615909 31.1493897,4.54615909 L28.5342723,4.54615909 C28.5342723,4.54615909 27.7129539,4.54615909 27.125823,4.54615909 C27.1258243,3.76511767 27.1258216,1.59161364 27.1258216,1.59161364 L1.80215962,1.59161364 L1.4084507,1.59161364 L1.40845108,35.6032542 C1.40845109,36.6264729 2.23498674,37.4559556 3.25798099,37.4559556 L25.2762921,37.4559556 C26.2977592,37.4559556 27.125822,36.6170792 27.125822,35.6017567 L27.1258216,7.26906818 C27.1258216,6.86114394 27.4410329,6.53043182 27.8300469,6.53043182 L31.1493897,6.53043182 C34.1761502,6.53043182 36.6385915,9.11319697 36.6385915,12.2878561 L36.6385915,23.2747273 C36.6385915,26.4493864 34.1761502,29.0321515 31.1493897,29.0321515 L28.5342723,29.0321515 L28.5342737,31.0163245 M31.1492958,7.99184848 C33.3994366,7.99184848 35.2300469,9.91190909 35.2300469,12.272 L35.2300469,23.2587727 C35.2300469,25.6188636 33.3994366,27.5389242 31.1492958,27.5389242 L28.5341784,27.5389242 L28.5341784,7.99184848 L31.1492958,7.99184848 Z" id="Shape" fill="#000000"></path>
            <path d="M3.298674,19.0555379 C3.298674,18.6476136 3.64735918,18.3169015 4.07768468,18.3169015 C4.50790631,18.3169015 4.85669537,18.6476136 4.85669537,19.0555379 L4.85669537,34.0886707 C4.85669537,34.2991057 5.03217129,34.469697 5.2369436,34.469697 L5.55208403,34.469697 C6.07974754,34.469697 6.31241266,34.8377421 6.31241266,35.1704166 C6.31241266,35.5030109 6.07974754,35.9696212 5.55208403,35.9696212 L4.55714613,35.969621 C3.86211116,35.9696209 3.298674,35.406859 3.298674,34.6983156 L3.298674,19.0555379 Z" id="Combined-Shape" fill="#FFFFFF"></path>
            <g id="noun_49834_cc" transform="translate(8.390244, 17.333333)" fill="#000000">
                <g id="Group">
                    <path d="M0.20811825,3.72925042 C0.346797955,3.86925754 0.528897302,3.93939394 0.710733499,3.93939394 C0.892306547,3.93939394 1.07414274,3.86925754 1.21282245,3.72925042 L1.95121951,2.98405122 L2.68961657,3.72925042 C2.82829628,3.86925754 3.01013248,3.93939394 3.19170553,3.93939394 C3.37354172,3.93939394 3.55564107,3.86925754 3.69432077,3.72925042 C3.97194333,3.44897051 3.97168018,2.99494362 3.69432077,2.71492938 L2.95592371,1.96973018 L3.69432077,1.22453098 C3.97168018,0.944251069 3.97194333,0.490224178 3.69432077,0.210209934 C3.41669822,-0.0698043099 2.96697598,-0.070069978 2.68961657,0.210209934 L1.95121951,0.955409132 L1.21282245,0.210209934 C0.935199891,-0.070069978 0.48547766,-0.070069978 0.20811825,0.210209934 C-0.0692411597,0.490489846 -0.0692411597,0.944516737 0.20811825,1.22453098 L0.946515312,1.96973018 L0.20811825,2.71492938 C-0.0692411597,2.99520929 -0.0695043091,3.44923618 0.20811825,3.72925042 L0.20811825,3.72925042 Z" id="Shape"></path>
                    <ellipse id="Oval-19" cx="5.95121951" cy="9.84848485" rx="2.43902439" ry="2.46212121"></ellipse>
                    <path d="M8.30567923,3.72925042 C8.44435893,3.86925754 8.62645828,3.93939394 8.80829447,3.93939394 C8.98986752,3.93939394 9.17170372,3.86925754 9.31038343,3.72925042 L10.0487805,2.98405122 L10.7871776,3.72925042 C10.9258573,3.86925754 11.1076935,3.93939394 11.2892665,3.93939394 C11.4711027,3.93939394 11.653202,3.86925754 11.7918817,3.72925042 C12.0695043,3.44897051 12.0692412,2.99494362 11.7918817,2.71492938 L11.0534847,1.96973018 L11.7918817,1.22453098 C12.0692412,0.944251069 12.0695043,0.490224178 11.7918817,0.210209934 C11.5142592,-0.0698043099 11.064537,-0.070069978 10.7871776,0.210209934 L10.0487805,0.955409132 L9.31038343,0.210209934 C9.03276087,-0.070069978 8.58303864,-0.070069978 8.30567923,0.210209934 C8.02831982,0.490489846 8.02831982,0.944516737 8.30567923,1.22453098 L9.04407629,1.96973018 L8.30567923,2.71492938 C8.02831982,2.99520929 8.02805667,3.44923618 8.30567923,3.72925042 L8.30567923,3.72925042 Z" id="Shape-Copy"></path>
                </g>
            </g>
        </g>
    </g>
</svg>