<?xml version="1.0" encoding="UTF-8" standalone="no"?>
<svg width="40px" height="39px" viewBox="0 0 40 39" version="1.1" xmlns="http://www.w3.org/2000/svg" xmlns:xlink="http://www.w3.org/1999/xlink">
    <!-- Generator: Sketch 3.7.2 (28276) - http://www.bohemiancoding.com/sketch -->
    <title>beer-issues</title>
    <desc>Created with Sketch.</desc>
    <defs></defs>
    <g id="Page-1" stroke="none" stroke-width="1" fill="none" fill-rule="evenodd">
        <g id="beer-issues">
            <g id="beer-flat-copy">
                <path d="M28.5341784,2.96202532 L28.5341784,0.740506329 C28.5341784,0.331549367 28.2189671,-7.10542736e-15 27.8299531,-7.10542736e-15 L0.704225352,-7.10542736e-15 C0.315211268,-7.10542736e-15 -1.04246293e-17,0.331549367 -1.04246293e-17,0.740506329 L-1.04246293e-17,35.9848944 C-1.04246293e-17,37.6043411 1.3190398,38.917162 2.91957189,38.917162 L25.6147018,38.917162 C27.2271368,38.917162 28.5342734,37.6107279 28.5342731,35.9914687 L28.5342723,32.4613291 L31.1493897,32.4613291 C35.9959624,32.4613291 39.9388732,28.3151848 39.9388732,23.2190203 L39.9388732,12.2043342 C39.9387793,7.10816962 35.9958685,2.96202532 31.1492958,2.96202532 L28.5341784,2.96202532 Z M31.1492958,7.91334684 C33.3994366,7.91334684 35.2300469,9.83826835 35.2300469,12.2043342 L35.2300469,23.2189215 C35.2300469,25.5849873 33.3994366,27.5099089 31.1492958,27.5099089 L28.5341784,27.5099089 L28.5341784,7.91334684 L31.1492958,7.91334684 Z" id="Combined-Shape" fill="#FFFFFF"></path>
                <path d="M27.156338,4.67387848 L27.156338,1.46501772 L1.83737089,1.46501772 L1.43906103,1.46501772 L1.43906103,9.37836456 L27.1564319,9.37836456 L27.1564319,7.15684557 C27.1564319,6.74788861 27.4716432,6.41633924 27.8605634,6.41633924 L27.8605634,5.41428608 C27.4715493,5.41438481 27.156338,5.08283544 27.156338,4.67387848 L27.156338,4.67387848 Z" id="Shape" fill="#FFFFFF"></path>
                <path d="M27.156338,29.8318648 L27.156338,12.835443 L1.43906103,12.835443 L1.43906103,37.4202532 L27.1564319,37.4202532 L27.1564319,32.1301136 C27.1564319,31.7515806 27.4716432,31.4446966 27.8605634,31.4446966 L27.8605634,30.5173731 C27.4715493,30.5172818 27.156338,30.2103977 27.156338,29.8318648 L27.156338,29.8318648 Z" id="Shape" fill="#F59B45"></path>
                <path d="M28.5341784,2.96202532 L28.5341784,0.740506329 C28.5341784,0.331549367 28.2189671,-7.46519583e-16 27.8299531,-7.46519583e-16 L0.704225352,-7.46519583e-16 C0.315211268,-7.46519583e-16 -1.04246293e-17,0.331549367 -1.04246293e-17,0.740506329 L-1.04246293e-17,35.9848944 C-1.04246293e-17,37.6043411 1.3190398,38.917162 2.91957189,38.917162 L25.6147018,38.917162 C27.2271368,38.917162 28.5342734,37.6107279 28.5342731,35.9914687 L28.5342723,32.4613291 L31.1493897,32.4613291 C35.9959624,32.4613291 39.9388732,28.3151848 39.9388732,23.2190203 L39.9388732,12.2043342 C39.9387793,7.10816962 35.9958685,2.96202532 31.1492958,2.96202532 L28.5341784,2.96202532 Z M31.1492958,30.9961139 C35.2191549,30.9961139 38.5303286,27.5144506 38.5304225,23.2348177 L38.5304225,12.2202304 C38.5304225,7.9406962 35.2193427,4.45893418 31.1493897,4.45893418 L28.5342723,4.45893418 C28.5342723,4.45893418 27.7129539,4.45893418 27.125823,4.45893418 C27.1258243,3.67591544 27.1258216,1.49690886 27.1258216,1.49690886 L1.80215962,1.49690886 L1.4084507,1.49690886 L1.4084507,11.3849392 L27.1258216,11.3849392 L27.1258216,7.18873671 C27.1258216,6.77977975 27.4410329,6.44823038 27.8300469,6.44823038 L31.1493897,6.44823038 C34.1761502,6.44823038 36.6385915,9.03753418 36.6385915,12.2202304 L36.6385915,23.2349165 C36.6385915,26.4176127 34.1761502,29.0069165 31.1493897,29.0069165 L28.5342723,29.0069165 L28.5342737,30.9961126 C28.9671822,30.9961126 28.0042364,30.9961126 27.1257284,30.9961126 L27.1258216,12.8659519 L1.4084507,12.8659519 L1.4084507,35.6040926 C1.4084507,36.6246888 2.23498334,37.4520456 3.25797384,37.4520456 L25.2762046,37.4520456 C26.297668,37.4520456 27.1257278,36.6212618 27.1257279,35.6020343 L27.1257284,30.9961126 M31.1492958,7.91334684 C33.3994366,7.91334684 35.2300469,9.83826835 35.2300469,12.2043342 L35.2300469,23.2189215 C35.2300469,25.5849873 33.3994366,27.5099089 31.1492958,27.5099089 L28.5341784,27.5099089 L28.5341784,7.91334684 L31.1492958,7.91334684 Z" id="Shape" fill="#000000"></path>
                <path d="M12.7505376,15.7974684 L6.56653555,15.7974684 C6.11899368,15.7974684 5.75609756,16.1732616 5.75609756,16.6367089 C5.75609756,17.1001561 6.11899368,17.4759494 6.56653555,17.4759494 L12.7505376,17.4759494 C13.1980795,17.4759494 13.5609756,17.1001561 13.5609756,16.6367089 C13.5609756,16.1732616 13.1980795,15.7974684 12.7505376,15.7974684 L12.7505376,15.7974684 Z" id="Shape" fill="#000000" transform="translate(9.658537, 16.636709) rotate(-330.000000) translate(-9.658537, -16.636709) "></path>
                <path d="M22.6911246,17.1660441 L16.5071225,17.1660441 C16.0595806,17.1660441 15.6966845,17.5418374 15.6966845,18.0052846 C15.6966845,18.4687319 16.0595806,18.8445251 16.5071225,18.8445251 L22.6911246,18.8445251 C23.1386664,18.8445251 23.5015626,18.4687319 23.5015626,18.0052846 C23.5015626,17.5418374 23.1386664,17.1660441 22.6911246,17.1660441 L22.6911246,17.1660441 Z" id="Shape-Copy-3" fill="#000000" transform="translate(19.599124, 18.005285) rotate(-9.000000) translate(-19.599124, -18.005285) "></path>
                <path d="M3.298674,19.0050456 C3.298674,18.5960886 3.64735918,18.2645392 4.07768468,18.2645392 C4.50790631,18.2645392 4.85669537,18.5960886 4.85669537,19.0050456 L4.85669537,34.076237 C4.85669537,34.2872047 5.03217129,34.4582278 5.2369436,34.4582278 L5.55208403,34.4582278 C6.07974754,34.4582278 6.31241266,34.8272048 6.31241266,35.1607215 C6.31241266,35.4941577 6.07974754,35.9619493 5.55208403,35.9619493 L4.55714613,35.9619492 C3.86211116,35.9619491 3.298674,35.3977625 3.298674,34.6874252 L3.298674,19.0050456 Z" id="Combined-Shape" fill="#FFFFFF"></path>
            </g>
            <g id="noun_1487_cc" transform="translate(3.512195, 19.845570)" fill="#0A0B0C">
                <g id="Group">
                    <path d="M-7.69979664e-14,0.514084102 C3.51518723,-0.30555052 6.36089263,-0.0234911208 9.51301915,0.722850295 C9.98040826,0.833498741 10.4742378,0.956843057 10.9957272,0.973043357 C11.8642152,1.0000496 12.84049,0.780440652 13.682284,0.565601405 C17.0054925,-0.282543343 19.6015022,0.158618153 22.1031794,0.701659997 L21.918387,2.20359046 C21.5278365,2.21237851 21.4050216,2.39736728 21.2934397,2.7585401 C20.709518,4.6485541 21.2068493,7.9006798 16.890117,7.51827793 C14.050314,7.26672718 13.2370353,6.47621008 11.8835685,3.00058554 C11.7684275,2.70492982 11.6935393,2.21641178 11.0359199,2.23446916 C10.6646016,2.24466988 10.3324877,2.31132298 10.2166435,2.96677639 C10.0007547,4.18811025 8.35922261,7.50641082 5.02625466,7.50275866 C2.08239781,7.499548 0.959432175,5.94711137 0.825332708,2.52632256 C0.808682815,2.10157981 0.444353295,2.0209629 0.225844633,2.01599325 L-1.28726335e-05,0.51406279 L-7.69979664e-14,0.514084102 Z" id="Shape"></path>
                </g>
            </g>
            <path d="M19.4822663,29.9088952 C19.6272064,29.8220844 19.6304801,29.5777374 19.5850864,29.4720771 C19.1549882,28.4709631 17.8684963,27.7443038 16.3482986,27.7443038 C15.8726758,27.7443038 14.558715,27.964454 14.1479161,28.092866 C12.9416061,28.4699473 10.8769445,29.326238 10.0615795,30.9971698 C9.97820691,31.1680257 9.86284205,31.7502389 9.86284205,31.7502389 C9.81755294,31.9619833 9.93458682,32.2062501 10.1461323,32.279417 C10.1461323,32.279417 11.3692035,33.0572083 12.4562314,31.1430089 C13.5432593,29.2288096 15.113959,28.7978276 16.3482986,28.7290722 C17.399772,28.6705029 18.3016467,29.1878122 18.800969,29.8102186 C18.9359241,29.9784404 19.3091426,30.0125863 19.4822663,29.9088952 Z" id="Combined-Shape" fill="#000000" transform="translate(14.732268, 30.089842) scale(-1, 1) translate(-14.732268, -30.089842) "></path>
            <g id="noun_11818_cc" transform="translate(19.448257, 33.166640) scale(-1, 1) rotate(92.000000) translate(-19.448257, -33.166640) translate(15.643379, 30.500817)">
                <g id="Group" transform="translate(-0.000000, -0.000000)">
                    <path d="M6.83318206,3.72505548 L2.65317133,1.26164349 C2.64122694,1.25269445 2.62800548,1.24541388 2.61448353,1.23874002 L1.08153329,0.232180826 C1.07732646,0.229450611 1.00122792,0.184857105 1.00122792,0.184857105 C1.00122792,0.184857105 -0.184121345,1.40268451 0.157232801,1.65674615 L5.66231963,4.90774924 C5.67832061,4.91844258 5.69424646,4.92883256 5.71054792,4.93838831 L6.03507475,5.12775903 C6.16450987,5.20261242 6.3103967,5.24265556 6.45786109,5.24265556 C6.75917524,5.24265556 7.03975573,5.07914604 7.19030012,4.81598369 C7.30290792,4.61827064 7.33280646,4.38825006 7.27451183,4.1683161 C7.21599183,3.94838215 7.02834889,3.83904195 6.83318206,3.72505548 Z" id="Path" fill="#FFFFFF" transform="translate(3.699551, 2.713756) rotate(-180.000000) translate(-3.699551, -2.713756) "></path>
                    <g transform="translate(-0.000000, -0.000000)" id="Shape" fill="#000000">
                        <path d="M7.18877507,3.49421084 C7.18877507,3.49421084 2.98359849,1.01456924 2.97007653,1.00789538 L1.38883471,0.146196536 L1.30590008,0.103423173 C0.917068857,-0.0692629028 0.342030244,0.177227848 0.124401951,0.55703104 C-0.0926253659,0.936530875 0.0130712195,1.41591106 0.354425366,1.6699727 L5.8595122,4.92097578 C5.87551317,4.93166912 5.89143902,4.94205911 5.90774049,4.95161486 L6.23226732,5.14098558 C6.36170244,5.21583897 6.50758927,5.25588211 6.65505366,5.25588211 C6.9563678,5.25588211 7.23694829,5.09237259 7.38749268,4.82921024 C7.50010049,4.63149719 7.64010788,4.30226577 7.58181325,4.08233181 C7.52329325,3.86239786 7.3839419,3.6081973 7.18877507,3.49421084 Z M2.30613358,1.61785287 C2.4311365,1.39920818 2.7035287,1.31980444 2.92408675,1.43212244 L6.08033553,3.29951341 C5.92888967,3.37330505 5.80238431,3.49078012 5.71651992,3.64094192 C5.63290919,3.78761512 5.47631512,4.09698184 5.48623122,4.26200815 L2.3586039,2.41175685 C2.2508039,2.34706593 2.17335317,2.24483456 2.14075024,2.12265746 C2.07518443,1.91062328 2.24340675,1.72744066 2.30613358,1.61785287 Z M5.92306537,3.97758843 C5.92336537,3.97698121 5.92336537,3.97667761 5.92366537,3.9762728 C5.92426537,3.97546318 5.92456537,3.97485596 5.92516537,3.97404634 C5.92456537,3.97495716 5.92426537,3.97556438 5.92366537,3.976374 C5.92366537,3.97667761 5.92336537,3.97698121 5.92306537,3.97758843 L5.92306537,3.97758843 Z M0.541297737,0.600583477 C0.669380663,0.376630037 0.952064566,0.298591402 1.17517676,0.422967846 L2.3145514,1.08762343 C2.16866457,1.15982244 2.04103237,1.27487065 1.95404115,1.42700428 C1.86975432,1.57451171 1.73997463,1.88664557 1.7507922,2.0532645 L0.621333659,1.39444854 C0.397470244,1.26339824 0.320244878,0.973085416 0.449604878,0.74655344 L0.541297737,0.600583477 Z"></path>
                    </g>
                </g>
            </g>
        </g>
    </g>
</svg>