<?xml version="1.0" encoding="UTF-8" standalone="no"?>
<svg width="40px" height="46px" viewBox="0 0 40 46" version="1.1" xmlns="http://www.w3.org/2000/svg" xmlns:xlink="http://www.w3.org/1999/xlink">
    <!-- Generator: Sketch 3.7.2 (28276) - http://www.bohemiancoding.com/sketch -->
    <title>beer-happy</title>
    <desc>Created with Sketch.</desc>
    <defs></defs>
    <g id="Page-1" stroke="none" stroke-width="1" fill="none" fill-rule="evenodd">
        <g id="beer-happy">
            <path d="M28.5647887,10.3587106 L28.5647887,8.15658298 C28.5647887,7.75119574 28.2495775,7.42254043 27.8605634,7.42254043 L27.2852582,7.42254043 C25.8937089,3.02582128 21.9168075,0 17.4326761,0 C14.5515493,0 11.8191549,1.24288085 9.85840376,3.42739149 C9.13868545,3.16362553 8.38835681,3.0303234 7.62112676,3.0303234 C4.83915493,3.0303234 2.37802817,4.77440851 1.3429108,7.42254043 L0.734835681,7.42254043 C0.345821596,7.42254043 0.0306103286,7.75119574 0.0306103286,8.15658298 L0.0306103286,43.0776719 C0.0306103286,44.6916291 1.34965013,46 2.95018222,46 L25.6453121,46 C27.2577471,46 28.5648837,44.6895271 28.5648834,43.0811649 L28.5648826,39.6005191 L31.18,39.6005191 C36.0265728,39.6005191 39.9694836,35.490566 39.9694836,30.4388851 L39.9694836,19.5203447 C39.9693897,14.4686638 36.0264789,10.3587106 31.1799061,10.3587106 L28.5647887,10.3587106 Z M31.1799061,15.2668128 C33.4300469,15.2668128 35.2606573,17.1749319 35.2606573,19.5203447 L35.2606573,30.4387872 C35.2606573,32.7842 33.4300469,34.6923191 31.1799061,34.6923191 L28.5647887,34.6923191 L28.5647887,15.2668128 L31.1799061,15.2668128 Z" id="Combined-Shape" fill="#FFFFFF"></path>
            <path d="M27.8605639,11.5849859 L27.156338,8.89052766 L1.83737089,8.89052766 L1.43906103,8.89052766 L1.43906103,16.7348 L27.1564319,16.7348 L27.1564319,14.5326723 C27.1564319,14.1272851 27.4716432,13.7986298 27.8605634,13.7986298 L27.8605634,12.8053234 C27.728863,12.8053565 27.8605639,11.5849859 27.8605639,11.5849859 Z" id="Shape" fill="#FCEBDC"></path>
            <path d="M25.8165945,7.42254043 C24.490679,3.87378723 21.1774396,1.46808511 17.4604443,1.46808511 C14.8241063,1.46808511 12.331618,2.67250213 10.6220405,4.77264681 C10.4205382,5.01997021 10.0875804,5.10042128 9.80232223,4.96995745 C9.11772129,4.65705957 8.39312035,4.49840851 7.648895,4.49840851 C5.64560861,4.49840851 3.85293255,5.63989362 2.92682927,7.42254043 L25.8165945,7.42254043 L25.8165945,7.42254043 Z" id="Shape" fill="#FCEBDC"></path>
            <path d="M27.156338,36.405183 L27.156338,18.202983 L1.43906103,18.202983 L1.43906103,44.5319149 L27.1564319,44.5319149 L27.1564319,38.8664766 C27.1564319,38.4610894 27.4716432,38.132434 27.8605634,38.132434 L27.8605634,37.1393234 C27.4715493,37.1392255 27.156338,36.8105702 27.156338,36.405183 L27.156338,36.405183 Z" id="Shape" fill="#F59B45"></path>
            <path d="M28.5647887,10.3587106 L28.5647887,8.15658298 C28.5647887,7.75119574 28.2495775,7.42254043 27.8605634,7.42254043 L27.2852582,7.42254043 C25.8937089,3.02582128 21.9168075,0 17.4326761,0 C14.5515493,0 11.8191549,1.24288085 9.85840376,3.42739149 C9.13868545,3.16362553 8.38835681,3.0303234 7.62112676,3.0303234 C4.83915493,3.0303234 2.37802817,4.77440851 1.3429108,7.42254043 L0.734835681,7.42254043 C0.345821596,7.42254043 0.0306103286,7.75119574 0.0306103286,8.15658298 L0.0306103286,43.0776719 C0.0306103286,44.6916291 1.34965013,46 2.95018222,46 L25.6453121,46 C27.2577471,46 28.5648837,44.6895271 28.5648834,43.0811649 L28.5648826,39.6005191 L31.18,39.6005191 C36.0265728,39.6005191 39.9694836,35.490566 39.9694836,30.4388851 L39.9694836,19.5203447 C39.9693897,14.4686638 36.0264789,10.3587106 31.1799061,10.3587106 L28.5647887,10.3587106 Z M31.1799061,38.1480936 C35.2497653,38.1480936 38.560939,34.6968213 38.5610329,30.4545447 L38.5610329,19.5361021 C38.5610329,15.2939234 35.2499531,11.8425532 31.18,11.8425532 L28.5648826,11.8425532 C28.5648826,11.8425532 27.7435642,11.8425532 27.1564333,11.8425532 C27.1564347,11.0663693 27.1564319,8.90638298 27.1564319,8.90638298 L1.83276995,8.90638298 L1.43906103,8.90638298 L1.43906103,16.7506553 L27.1564319,16.7506553 L27.1564319,14.5485277 C27.1564319,14.1431404 27.4716432,13.8144851 27.8606573,13.8144851 L31.18,13.8144851 C34.2067606,13.8144851 36.6692019,16.3811872 36.6692019,19.5361021 L36.6692019,30.4546426 C36.6692019,33.6095574 34.2067606,36.1762596 31.18,36.1762596 L28.5648826,36.1762596 L28.564884,38.1480923 C28.9977926,38.1480923 28.0348467,38.1480923 27.1563387,38.1480923 L27.1564319,18.2187404 L1.43906103,18.2187404 L1.43906103,42.696273 C1.43906103,43.7187726 2.26559366,44.5476723 3.28858417,44.5476723 L25.3068149,44.5476723 C26.3282783,44.5476723 27.1563381,43.711039 27.1563382,42.6966486 L27.1563387,38.1480923 M31.1799061,15.2668128 C33.4300469,15.2668128 35.2606573,17.1749319 35.2606573,19.5203447 L35.2606573,30.4387872 C35.2606573,32.7842 33.4300469,34.6923191 31.1799061,34.6923191 L28.5647887,34.6923191 L28.5647887,15.2668128 L31.1799061,15.2668128 Z M9.77455399,4.96985957 C10.0598122,5.1003234 10.3928638,5.01987234 10.5942723,4.77254894 C12.3038498,2.67250213 14.796338,1.46808511 17.4326761,1.46808511 C21.1496714,1.46808511 24.4629108,3.87378723 25.7888263,7.42254043 L2.89906103,7.42254043 C3.82516432,5.63989362 5.61774648,4.49831064 7.62112676,4.49831064 C8.36535211,4.49831064 9.08995305,4.6569617 9.77455399,4.96985957 Z" id="Shape" fill="#000000"></path>
            <rect id="Rectangle-7" fill="#FCEBDC" x="18.6341463" y="6.85106383" width="3.80487805" height="3.42553191"></rect>
            <path d="M22.4390244,8.22126933 C22.9799597,8.73824509 23.3170732,9.46792624 23.3170732,10.2765957 C23.3170732,11.8441444 22.0503666,13.1148936 20.4878049,13.1148936 C18.9252431,13.1148936 17.6585366,11.8441444 17.6585366,10.2765957 C17.6585366,9.42035117 18.0364825,8.65266232 18.6341463,8.13226211 L18.6341463,10.2765957 L18.9275543,10.2765957 C18.9270721,10.2928486 18.9268293,10.3091618 18.9268293,10.3255319 C18.9268293,11.217413 19.6475416,11.9404255 20.5365854,11.9404255 C21.4256291,11.9404255 22.1463415,11.217413 22.1463415,10.3255319 C22.1463415,10.3091618 22.1460987,10.2928486 22.1456165,10.2765957 L22.4390244,10.2765957 L22.4390244,8.22126933 Z" id="Combined-Shape" fill="#000000"></path>
            <path d="M3.298674,26.2774511 C3.298674,25.8720638 3.64735918,25.5434085 4.07768468,25.5434085 C4.50790631,25.5434085 4.85669537,25.8720638 4.85669537,26.2774511 L4.85669537,41.2016945 C4.85669537,41.4193224 5.03217129,41.5957447 5.2369436,41.5957447 L5.55208403,41.5957447 C6.07974754,41.5957447 6.31241266,41.9615008 6.31241266,42.2921064 C6.31241266,42.6226321 6.07974754,43.0863404 5.55208403,43.0863404 L4.55714613,43.0863402 C3.86211116,43.0863401 3.298674,42.5270782 3.298674,41.8229414 L3.298674,26.2774511 Z" id="Combined-Shape" fill="#FFFFFF"></path>
            <g id="noun_49834_cc" transform="translate(7.804878, 24.076596)" fill="#000000">
                <g id="Group">
                    <path d="M10.4572309,0.0955723404 C11.481175,0.0955723404 12.3106473,0.929377988 12.3106473,1.95752748 C12.3106473,2.98592021 11.4809329,3.81948263 10.4572309,3.81948263 C9.43304462,3.81948263 8.60333021,2.98592021 8.60333021,1.95752748 C8.60333021,0.929377988 9.4332868,0.0955723404 10.4572309,0.0955723404 L10.4572309,0.0955723404 Z M2.35349057,0.0955723404 C3.37723406,0.0955723404 4.20727017,0.928311893 4.20727017,1.95514681 C4.20727017,2.98222465 3.37723406,3.81472128 2.35349057,3.81472128 C1.32998921,3.81472128 0.499953096,2.98222465 0.499953096,1.95514681 C0.50019523,0.928311893 1.32998921,0.0955723404 2.35349057,0.0955723404 L2.35349057,0.0955723404 Z" id="Shape"></path>
                    <path d="M0.339446108,7.34042553 C0.149057893,7.34042553 -0.00253999466,7.49890772 0.00114767607,7.65264837 C0.00114767607,7.65264837 -0.00143459509,7.5882401 0.00114767607,7.65264837 C0.172515138,11.9269795 2.27682036,14.093617 6.25848877,14.093617 C10.3609955,14.093617 12.7058485,11.802395 12.8769747,7.63564179 C12.8793914,7.57679753 12.8769747,7.63564179 12.8769747,7.63564179 C12.8802599,7.47259835 12.7199685,7.34042553 12.5381947,7.34042553 L0.339446108,7.34042553 Z M6.25848877,11.4132317 C7.13000135,11.4132317 7.90403738,11.8866547 8.26433959,12.591261 C7.6693716,12.7658211 6.99714442,12.8542738 6.25848877,12.8542738 C5.50575318,12.8542738 4.83533111,12.7624706 4.25769229,12.5802044 C4.62124372,11.8822991 5.39419668,11.4132317 6.25848877,11.4132317 L6.25848877,11.4132317 Z" id="Shape"></path>
                </g>
            </g>
            <rect id="Rectangle-5" fill="#000000" x="22.1463415" y="7.43829787" width="1.17073171" height="2.93617021"></rect>
            <rect id="Rectangle-5-Copy" fill="#000000" x="17.6585366" y="7.43829787" width="1.26829268" height="2.93617021"></rect>
        </g>
    </g>
</svg>